<?xml version="1.0" encoding="UTF-8"?>
<!DOCTYPE svg PUBLIC "-//W3C//DTD SVG 1.1//EN" "http://www.w3.org/Graphics/SVG/1.1/DTD/svg11.dtd">
<svg xmlns="http://www.w3.org/2000/svg" version="1.1" width="743px" height="633px" style="shape-rendering:geometricPrecision; text-rendering:geometricPrecision; image-rendering:optimizeQuality; fill-rule:evenodd; clip-rule:evenodd" xmlns:xlink="http://www.w3.org/1999/xlink">
<g><path style="opacity:0.925" fill="#cbcccb" d="M 364.5,20.5 C 378.632,18.8156 389.132,24.149 396,36.5C 400.351,50.6288 396.184,61.4622 383.5,69C 369.209,74.3889 357.709,70.8889 349,58.5C 342.882,41.0846 348.049,28.4179 364.5,20.5 Z"/></g>
<g><path style="opacity:0.96" fill="#cbcccb" d="M 356.5,94.5 C 426.163,91.1718 481.83,117.172 523.5,172.5C 555.282,221.105 563.782,273.772 549,330.5C 532.549,381.99 499.716,419.824 450.5,444C 448,447.167 445.5,450.333 443,453.5C 438.667,465.707 437.834,478.207 440.5,491C 440.476,497.243 439.81,503.243 438.5,509C 439.833,517.667 439.833,526.333 438.5,535C 440.342,542.146 443.175,548.98 447,555.5C 462.728,569.619 480.562,572.786 500.5,565C 515.272,558.912 526.772,549.079 535,535.5C 543.994,523.586 555.161,520.919 568.5,527.5C 582.082,540.063 583.082,553.73 571.5,568.5C 567.823,572.012 564.489,575.846 561.5,580C 557.843,582.658 554.509,585.658 551.5,589C 524.166,607.111 494.166,614.778 461.5,612C 443.05,608.532 426.717,600.866 412.5,589C 409.121,584.41 405.621,579.91 402,575.5C 398.674,569.188 396.34,562.521 395,555.5C 393.877,532.527 393.377,509.527 393.5,486.5C 393.667,466.167 393.833,445.833 394,425.5C 395.124,419.085 397.957,413.585 402.5,409C 414.51,402.998 426.51,396.998 438.5,391C 479.267,364.353 500.6,327.019 502.5,279C 501.42,235.509 484.086,200.175 450.5,173C 398.841,138.064 346.841,137.731 294.5,172C 245.341,211.841 230.175,262.341 249,323.5C 260.898,352.778 280.398,375.611 307.5,392C 318.102,398.134 329.102,403.468 340.5,408C 343.748,411.573 346.581,415.407 349,419.5C 351.936,461.457 352.269,503.457 350,545.5C 347.208,573.248 333.041,592.748 307.5,604C 277.115,615.581 246.782,615.247 216.5,603C 193.847,592.749 176.68,577.249 165,556.5C 161.677,537.645 169.51,526.645 188.5,523.5C 200.308,525.793 208.808,532.46 214,543.5C 223.58,554.709 235.413,562.542 249.5,567C 269.296,572.766 285.796,567.932 299,552.5C 301.27,547.356 302.937,542.022 304,536.5C 304.799,509.439 304.132,482.439 302,455.5C 299.558,451.059 296.392,447.226 292.5,444C 225.502,408.886 190.169,353.719 186.5,278.5C 189.093,214.302 216.093,163.302 267.5,125.5C 294.992,108.56 324.658,98.2267 356.5,94.5 Z"/></g>
<g><path style="opacity:0.956" fill="#cbcccb" d="M 182.5,122.5 C 201.244,119.772 212.244,127.606 215.5,146C 215.191,149.307 214.358,152.474 213,155.5C 210.833,158.333 208.667,161.167 206.5,164C 186.477,178.032 166.477,192.032 146.5,206C 132.098,217.397 118.598,229.897 106,243.5C 102.386,249.891 98.8864,256.391 95.5,263C 90.8375,277.376 92.0042,291.209 99,304.5C 101.416,309.001 104.083,313.334 107,317.5C 120.225,331.058 134.392,343.558 149.5,355C 163.955,365.401 178.622,375.567 193.5,385.5C 197.792,389.29 201.958,393.29 206,397.5C 212.337,410.81 209.504,421.643 197.5,430C 189.5,433.333 181.5,433.333 173.5,430C 124.203,401.043 82.0364,363.877 47,318.5C 37.5254,301.238 34.8588,282.904 39,263.5C 40.8392,256.821 43.5059,250.488 47,244.5C 82.8225,198.004 124.989,158.504 173.5,126C 176.598,124.772 179.598,123.606 182.5,122.5 Z"/></g>
<g><path style="opacity:0.952" fill="#cbcccb" d="M 548.5,122.5 C 554.923,122.632 561.257,123.465 567.5,125C 571.241,127.732 575.241,130.066 579.5,132C 623.83,163.328 662.664,200.495 696,243.5C 708.008,264.951 709.675,287.284 701,310.5C 697.75,315.887 694.083,321.554 690,327.5C 671.064,350.101 650.564,370.934 628.5,390C 618.539,397.655 608.539,405.322 598.5,413C 589.43,419.064 580.097,424.731 570.5,430C 558.811,434.552 548.311,432.719 539,424.5C 533.862,415.844 533.195,406.844 537,397.5C 541.406,393.383 545.906,389.383 550.5,385.5C 571.069,371.722 591.069,357.222 610.5,342C 622.742,331.76 633.575,320.26 643,307.5C 654.443,281.726 650.776,258.392 632,237.5C 607.672,214 581.172,193.333 552.5,175.5C 548.012,171.757 543.346,168.257 538.5,165C 527.938,156.499 525.605,145.999 531.5,133.5C 534.317,131.183 536.984,128.683 539.5,126C 542.459,124.396 545.459,123.229 548.5,122.5 Z"/></g>
<g><path style="opacity:0.969" fill="#cbcccb" d="M 362.5,210.5 C 391.775,207.893 414.609,218.56 431,242.5C 444.857,270.66 442.524,297.326 424,322.5C 403.676,343.71 379.176,350.543 350.5,343C 320.49,331.485 304.823,309.652 303.5,277.5C 305.851,239.82 325.518,217.487 362.5,210.5 Z"/></g>
<g><path style="opacity:0.922" fill="#cbcccb" d="M 81.5,395.5 C 96.4078,393.283 106.908,398.95 113,412.5C 116.208,426.238 111.708,436.405 99.5,443C 85.1763,447.672 74.0096,443.839 66,431.5C 60.226,414.627 65.3926,402.627 81.5,395.5 Z"/></g>
<g><path style="opacity:0.925" fill="#cbcccb" d="M 647.5,395.5 C 653.99,395.02 660.323,395.687 666.5,397.5C 680.138,407.043 683.305,419.377 676,434.5C 667.512,444.415 657.012,447.248 644.5,443C 630.684,435.233 626.517,423.733 632,408.5C 633.458,406.04 635.291,403.873 637.5,402C 640.76,399.546 644.093,397.379 647.5,395.5 Z"/></g>
</svg>
