<?xml version="1.0" encoding="UTF-8"?>
<!DOCTYPE svg PUBLIC "-//W3C//DTD SVG 1.1//EN" "http://www.w3.org/Graphics/SVG/1.1/DTD/svg11.dtd">
<svg xmlns="http://www.w3.org/2000/svg" version="1.1" width="600px" height="551px" style="shape-rendering:geometricPrecision; text-rendering:geometricPrecision; image-rendering:optimizeQuality; fill-rule:evenodd; clip-rule:evenodd" xmlns:xlink="http://www.w3.org/1999/xlink">
<g><path style="opacity:0.973" fill="#2195a2" d="M 292.5,-0.5 C 297.167,-0.5 301.833,-0.5 306.5,-0.5C 317.578,3.95611 322.911,12.2894 322.5,24.5C 316.337,41.947 304.67,47.1137 287.5,40C 281.98,36.0998 278.647,30.9331 277.5,24.5C 276.634,12.5539 281.634,4.22061 292.5,-0.5 Z"/></g>
<g><path style="opacity:0.991" fill="#17296c" d="M 277.5,24.5 C 278.647,30.9331 281.98,36.0998 287.5,40C 304.67,47.1137 316.337,41.947 322.5,24.5C 375.098,29.8037 419.765,51.1371 456.5,88.5C 442.452,88.3885 434.452,95.2219 432.5,109C 432.354,116.534 435.354,122.534 441.5,127C 464.787,144.618 487.787,162.618 510.5,181C 511.883,182.271 512.883,183.771 513.5,185.5C 522.149,220.413 523.149,255.413 516.5,290.5C 511.94,295.125 506.94,299.291 501.5,303C 483.775,315.724 465.775,328.057 447.5,340C 437.762,348.344 435.928,358.177 442,369.5C 448.185,377.002 456.019,379.502 465.5,377C 471.999,373.311 478.333,369.478 484.5,365.5C 455.138,409.532 415.138,439.532 364.5,455.5C 363.337,433.671 363.17,411.671 364,389.5C 415.905,365.723 447.239,325.723 458,269.5C 466.105,199.887 440.939,146.054 382.5,108C 339.359,84.3294 294.359,79.996 247.5,95C 187.991,118.183 153.158,161.35 143,224.5C 137.575,287.799 160.408,337.966 211.5,375C 220.125,380.229 228.958,385.062 238,389.5C 238.822,411.906 238.655,434.239 237.5,456.5C 186.285,440.594 145.618,410.594 115.5,366.5C 121.264,369.748 126.931,373.248 132.5,377C 152.011,379.485 161.178,370.985 160,351.5C 157.985,346.481 154.818,342.315 150.5,339C 128.311,324.74 106.644,309.74 85.5,294C 84.1772,293.184 83.5106,292.017 83.5,290.5C 76.1887,254.945 77.1887,219.611 86.5,184.5C 107.442,165.394 129.442,147.561 152.5,131C 156.633,127.869 160.466,124.369 164,120.5C 170.381,101.379 163.548,90.7126 143.5,88.5C 180.249,51.1299 224.916,29.7966 277.5,24.5 Z M 321.5,388.5 C 308.107,390.848 294.774,390.848 281.5,388.5C 281.666,382.824 281.499,377.157 281,371.5C 280.072,365.813 277.239,361.313 272.5,358C 214.093,338.589 184.593,298.089 184,236.5C 189.359,188.932 213.859,155.432 257.5,136C 310.453,118.695 355.619,130.528 393,171.5C 423.443,213.567 426.443,257.567 402,303.5C 384.782,330.694 360.615,348.86 329.5,358C 324.964,361.862 322.131,366.695 321,372.5C 320.685,377.838 320.852,383.172 321.5,388.5 Z M 299.5,172.5 C 343.461,176.294 367.794,200.127 372.5,244C 371.068,272.881 357.735,294.214 332.5,308C 297.757,322.054 268.257,314.888 244,286.5C 223.726,254.963 225.393,224.629 249,195.5C 262.99,181.419 279.823,173.752 299.5,172.5 Z"/></g>
<g><path style="opacity:0.983" fill="#2195a2" d="M 364.5,455.5 C 364.333,467.171 364.5,478.838 365,490.5C 369.162,499.993 376.329,505.826 386.5,508C 409.307,509.508 429.473,503.008 447,488.5C 448.996,483.881 450.996,479.215 453,474.5C 461.448,465.263 471.281,463.43 482.5,469C 491.905,477.872 494.072,488.372 489,500.5C 479.992,518.507 466.158,531.341 447.5,539C 434.797,544.254 421.797,548.088 408.5,550.5C 399.5,550.5 390.5,550.5 381.5,550.5C 355.998,545.825 337.498,531.825 326,508.5C 324.714,505.595 323.714,502.595 323,499.5C 322.5,487.838 322.333,476.171 322.5,464.5C 322.641,439.158 322.308,413.825 321.5,388.5C 320.852,383.172 320.685,377.838 321,372.5C 322.131,366.695 324.964,361.862 329.5,358C 360.615,348.86 384.782,330.694 402,303.5C 426.443,257.567 423.443,213.567 393,171.5C 355.619,130.528 310.453,118.695 257.5,136C 213.859,155.432 189.359,188.932 184,236.5C 184.593,298.089 214.093,338.589 272.5,358C 277.239,361.313 280.072,365.813 281,371.5C 281.499,377.157 281.666,382.824 281.5,388.5C 279.829,413.647 279.163,438.98 279.5,464.5C 285.635,497.312 274.969,522.812 247.5,541C 238.703,545.097 229.703,548.264 220.5,550.5C 211.833,550.5 203.167,550.5 194.5,550.5C 169.968,546.931 147.968,537.431 128.5,522C 117.736,512.805 111.736,501.139 110.5,487C 112.616,470.216 121.95,463.549 138.5,467C 147.319,470.496 152.486,476.996 154,486.5C 164.935,497.386 178.101,504.219 193.5,507C 200.777,508.467 208.111,508.801 215.5,508C 225.253,505.918 232.42,500.418 237,491.5C 237.5,479.838 237.667,468.171 237.5,456.5C 238.655,434.239 238.822,411.906 238,389.5C 228.958,385.062 220.125,380.229 211.5,375C 160.408,337.966 137.575,287.799 143,224.5C 153.158,161.35 187.991,118.183 247.5,95C 294.359,79.996 339.359,84.3294 382.5,108C 440.939,146.054 466.105,199.887 458,269.5C 447.239,325.723 415.905,365.723 364,389.5C 363.17,411.671 363.337,433.671 364.5,455.5 Z M 321.5,388.5 C 308.107,390.848 294.774,390.848 281.5,388.5C 281.666,382.824 281.499,377.157 281,371.5C 280.072,365.813 277.239,361.313 272.5,358C 214.093,338.589 184.593,298.089 184,236.5C 189.359,188.932 213.859,155.432 257.5,136C 310.453,118.695 355.619,130.528 393,171.5C 423.443,213.567 426.443,257.567 402,303.5C 384.782,330.694 360.615,348.86 329.5,358C 324.964,361.862 322.131,366.695 321,372.5C 320.685,377.838 320.852,383.172 321.5,388.5 Z M 299.5,172.5 C 279.823,173.752 262.99,181.419 249,195.5C 225.393,224.629 223.726,254.963 244,286.5C 268.257,314.888 297.757,322.054 332.5,308C 357.735,294.214 371.068,272.881 372.5,244C 367.794,200.127 343.461,176.294 299.5,172.5 Z"/></g>
<g><path style="opacity:0.979" fill="#2195a2" d="M 143.5,88.5 C 163.548,90.7126 170.381,101.379 164,120.5C 160.466,124.369 156.633,127.869 152.5,131C 129.442,147.561 107.442,165.394 86.5,184.5C 69.3694,197.129 55.2028,212.463 44,230.5C 41.2339,236.386 40.9005,242.386 43,248.5C 47.6296,257.8 53.7963,265.967 61.5,273C 68.7119,279.091 76.0452,284.924 83.5,290.5C 83.5106,292.017 84.1772,293.184 85.5,294C 106.644,309.74 128.311,324.74 150.5,339C 154.818,342.315 157.985,346.481 160,351.5C 161.178,370.985 152.011,379.485 132.5,377C 126.931,373.248 121.264,369.748 115.5,366.5C 87.2473,348.09 60.2473,327.924 34.5,306C 17.6375,291.409 5.97086,273.576 -0.5,252.5C -0.5,245.167 -0.5,237.833 -0.5,230.5C 3.8456,212.635 12.3456,196.969 25,183.5C 40.5668,167.93 56.7335,153.096 73.5,139C 92.9856,123.425 112.652,108.092 132.5,93C 135.726,90.4246 139.393,88.9246 143.5,88.5 Z"/></g>
<g><path style="opacity:0.979" fill="#2195a2" d="M 456.5,88.5 C 460.198,89.182 463.531,90.682 466.5,93C 496.033,114.861 524.7,137.861 552.5,162C 564.107,172.601 574.607,184.101 584,196.5C 590.835,206.831 596.002,217.831 599.5,229.5C 599.5,236.833 599.5,244.167 599.5,251.5C 596.04,266.488 589.206,279.821 579,291.5C 562.01,308.499 543.843,323.999 524.5,338C 511.286,347.387 497.953,356.554 484.5,365.5C 478.333,369.478 471.999,373.311 465.5,377C 456.019,379.502 448.185,377.002 442,369.5C 435.928,358.177 437.762,348.344 447.5,340C 465.775,328.057 483.775,315.724 501.5,303C 506.94,299.291 511.94,295.125 516.5,290.5C 528.116,281.385 538.949,271.385 549,260.5C 553.614,254.772 556.448,248.272 557.5,241C 557.363,238.102 556.863,235.269 556,232.5C 545.182,213.846 531.015,198.18 513.5,185.5C 512.883,183.771 511.883,182.271 510.5,181C 487.787,162.618 464.787,144.618 441.5,127C 435.354,122.534 432.354,116.534 432.5,109C 434.452,95.2219 442.452,88.3885 456.5,88.5 Z"/></g>
<g><path style="opacity:0.963" fill="#17286c" d="M 289.5,141.5 C 333.729,138.967 367.562,156.301 391,193.5C 407.97,228 407.637,262.333 390,296.5C 361.534,338.467 322.367,353.967 272.5,343C 230.788,329.289 206.288,300.789 199,257.5C 195.447,207.088 216.28,170.921 261.5,149C 270.716,145.532 280.049,143.032 289.5,141.5 Z M 299.5,172.5 C 279.823,173.752 262.99,181.419 249,195.5C 225.393,224.629 223.726,254.963 244,286.5C 268.257,314.888 297.757,322.054 332.5,308C 357.735,294.214 371.068,272.881 372.5,244C 367.794,200.127 343.461,176.294 299.5,172.5 Z"/></g>
<g><path style="opacity:0.981" fill="#2196a2" d="M 288.5,183.5 C 321.967,180.136 345.133,193.803 358,224.5C 365.936,254.369 357.436,278.202 332.5,296C 301.632,311.747 274.465,306.914 251,281.5C 235.149,257.942 234.482,233.942 249,209.5C 259.167,196.148 272.333,187.481 288.5,183.5 Z"/></g>
<g><path style="opacity:0.95" fill="#2196a2" d="M 35.5,350.5 C 49.4198,348.205 58.9198,353.538 64,366.5C 66.159,383.343 58.8257,393.01 42,395.5C 25.7139,393.213 18.3806,383.88 20,367.5C 22.2832,359.056 27.4499,353.389 35.5,350.5 Z"/></g>
<g><path style="opacity:0.948" fill="#2196a2" d="M 549.5,350.5 C 573.5,349.323 582.667,360.323 577,383.5C 567.995,395.585 556.828,398.085 543.5,391C 534.701,383.597 532.201,374.431 536,363.5C 539.076,357.589 543.576,353.255 549.5,350.5 Z"/></g>
<g><path style="opacity:0.986" fill="#17296c" d="M 281.5,388.5 C 294.774,390.848 308.107,390.848 321.5,388.5C 322.308,413.825 322.641,439.158 322.5,464.5C 308.164,465.731 293.831,465.731 279.5,464.5C 279.163,438.98 279.829,413.647 281.5,388.5 Z"/></g>
</svg>
